<svg xmlns="http://www.w3.org/2000/svg" width="120" height="27" viewBox="0 0 120 27" fill="none">
<path fill-rule="evenodd" clip-rule="evenodd" d="M9.34 22.89C10.27 22.89 11.14 22.72 11.96 22.39C11.96 22.42 13.63 25.01 13.66 25.02C12.1819 25.8119 10.5266 26.2145 8.85 26.19C3.72 26.2 0 22.81 0 17.42C0 11.99 3.9 8.62 8.85 8.62C10.6 8.62 11.99 9 13.38 9.74L11.78 12.44C10.94 12.11 10.08 11.96 9.18 11.96C6.15 11.96 3.8 13.89 3.8 17.42C3.8 20.76 6.07 22.89 9.34 22.89ZM22.27 8.62C27.31 8.62 30.96 12.19 30.96 17.42C30.96 22.62 27.31 26.19 22.26 26.19C17.26 26.19 13.61 22.62 13.61 17.42C13.61 12.19 17.26 8.62 22.27 8.62ZM22.27 11.84C19.46 11.84 17.41 14.01 17.41 17.42C17.41 20.8 19.46 22.97 22.27 22.97C25.15 22.97 27.17 20.8 27.17 17.42C27.17 14.01 25.15 11.84 22.27 11.84ZM33.35 25.81V9H37.11V25.8H33.35V25.81ZM32.85 3.83C32.889 3.23194 33.1541 2.67111 33.5914 2.26134C34.0288 1.85157 34.6057 1.62354 35.205 1.62354C35.8043 1.62354 36.3812 1.85157 36.8186 2.26134C37.2559 2.67111 37.521 3.23194 37.56 3.83C37.5601 4.45795 37.3142 5.06094 36.8748 5.50962C36.4355 5.9583 35.8378 6.21692 35.21 6.23C34.5822 6.21692 33.9845 5.9583 33.5452 5.50962C33.1058 5.06094 32.8599 4.45795 32.86 3.83H32.85ZM40.39 10.06C42.8529 9.13425 45.459 8.6469 48.09 8.62C52.39 8.62 55.11 10.25 55.11 14.99V25.81H51.4V15.34C51.4 12.91 49.89 12.04 47.8 12.04C46.47 12.04 45.14 12.22 44.15 12.53V25.8H40.4V10.06H40.39ZM58.26 0H62.02V9.45C62.82 9.03 64.37 8.62 65.85 8.62C70.71 8.62 74.35 11.72 74.35 17.12C74.35 22.55 70.75 26.19 64.53 26.19C62.1 26.19 59.97 25.69 58.26 25.09V0ZM62.02 22.62C62.74 22.85 63.69 22.97 64.64 22.97C68.09 22.97 70.56 21.07 70.56 17.2C70.56 13.93 68.24 12 65.4 12C63.92 12 62.78 12.38 62.02 12.8V22.62ZM85.22 14.54C85.22 12.72 83.84 11.88 81.98 11.88C80.05 11.88 78.53 12.45 77.13 13.25V9.98C78.8048 9.06984 80.684 8.60176 82.59 8.62C86.27 8.62 88.89 10.14 88.89 14.35V25.47C87.29 25.89 85.02 26.15 83.12 26.15C78.76 26.15 75.57 24.83 75.57 21.03C75.57 17.61 78.49 15.94 83.35 15.94H85.21V14.54H85.22ZM85.22 18.44H83.62C81 18.44 79.29 19.21 79.29 20.92C79.29 22.66 80.89 23.34 83.16 23.34C83.73 23.34 84.53 23.27 85.21 23.16V18.45L85.22 18.44ZM91.62 21.26C93.0854 22.421 94.8818 23.0864 96.75 23.16C98.42 23.16 99.52 22.59 99.52 21.26C99.52 19.89 98.53 19.4 96.37 18.83C92.87 18.03 91.4 16.63 91.4 13.7C91.4 10.29 93.98 8.62 97.4 8.62C99.3 8.62 100.81 9.03 102.22 9.91V13.36C100.88 12.2904 99.2243 11.6929 97.51 11.66C95.88 11.66 95.01 12.46 95.01 13.56C95.01 14.66 95.72 15.22 97.66 15.76C101.5 16.59 103.16 18.03 103.16 21.06C103.16 24.6 100.47 26.19 96.83 26.19C95.0042 26.2264 93.2041 25.7557 91.63 24.83V21.26H91.62ZM108.31 18.26V18.33C108.54 21.33 111.11 22.97 113.74 22.97C116.05 22.97 117.72 22.43 119.39 21.33V24.63C117.87 25.7 115.63 26.19 113.47 26.19C108.23 26.19 104.67 22.85 104.67 17.54C104.67 12.19 108.16 8.62 112.79 8.62C117.69 8.62 120 11.77 120 16.36V18.26H108.3H108.31ZM116.47 15.83C116.39 13.21 115.1 11.77 112.67 11.77C110.51 11.77 108.92 13.29 108.42 15.83H116.47Z" fill="white"/>
</svg>