<svg xmlns="http://www.w3.org/2000/svg" width="183" height="38" viewBox="0 0 183 38" fill="none">
<path d="M100.976 7.71032C101.565 7.56715 102.16 7.37737 102.771 7.38486C103.109 7.40067 103.16 7.80521 103.191 8.07074C103.272 9.31871 103.315 10.569 103.318 11.8198C103.372 13.0101 103.365 14.202 103.388 15.394C104.05 14.8771 104.699 14.3186 105.484 14.0014C106.738 13.4412 108.244 13.4346 109.467 14.0847C110.783 14.7531 111.701 16.0433 112.164 17.4367C112.596 18.7585 112.7 20.1744 112.627 21.5586C112.51 23.1759 112.077 24.8124 111.133 26.1408C110.574 26.9108 109.84 27.5859 108.943 27.913C107.505 28.4474 105.827 28.2559 104.537 27.421C104.128 27.1613 103.784 26.8142 103.409 26.5096C103.259 26.9882 103.145 27.4785 102.998 27.9596C102.309 27.9671 101.613 28.0162 100.93 27.9022C101.206 26.7826 101.212 25.6231 101.243 24.4761C101.293 20.4515 101.238 16.4262 101.222 12.4016C101.134 10.8384 101.263 9.25771 100.976 7.71032V7.71032ZM116.98 7.94505C117.42 7.80503 117.896 7.82953 118.32 8.01414C118.704 8.26481 118.999 8.6342 119.161 9.06793C119.445 9.99936 118.7 11.0448 117.767 11.1514C117.045 11.2329 116.253 10.8043 116.029 10.0784C115.733 9.25771 116.189 8.26968 116.98 7.94505V7.94505ZM51.9358 9.63062C52.984 8.9181 54.2059 8.38205 55.4835 8.3654C56.7841 8.34126 58.1323 8.43532 59.3288 8.99801C59.8188 9.22608 60.313 9.46581 60.7203 9.83205C60.4228 10.354 60.0303 10.8093 59.659 11.2762C59.1829 10.9891 58.7125 10.6802 58.1839 10.498C56.8956 10.036 55.4311 9.93693 54.1461 10.463C53.0709 10.8784 52.1923 11.7265 51.6408 12.7429C51.2597 13.4587 50.9409 14.2187 50.7819 15.0203C50.6402 15.8027 50.5951 16.5993 50.5828 17.3934C50.541 18.4488 50.4926 19.5076 50.5557 20.5622C50.7385 22.0281 51.2392 23.5039 52.2235 24.6184C53.0856 25.6256 54.3592 26.2166 55.6556 26.3489C56.3383 26.3872 57.0357 26.3964 57.7028 26.2208C58.5141 26.0401 59.2329 25.6073 59.9827 25.266C60.4204 25.7072 60.8006 26.2033 61.1579 26.7127C60.5986 27.0325 60.0206 27.3174 59.4271 27.5659C57.8274 28.2243 56.0531 28.2384 54.36 28.0728C53.1422 27.8156 52.012 27.1905 51.0729 26.3698C49.9895 25.4125 49.1962 24.1423 48.7184 22.7722C48.3963 21.8491 48.2389 20.8752 48.1537 19.9022C48.1201 19.1788 48.0406 18.453 48.1209 17.7288C48.1455 16.3579 48.3643 14.9753 48.9028 13.7101C49.551 12.1228 50.5238 10.617 51.9358 9.63062V9.63062Z" fill="white"/>
<path fill-rule="evenodd" clip-rule="evenodd" d="M36.6967 0H0V37.2906H36.6967V0ZM10.9596 9.27929C10.9402 9.28377 10.9208 9.28824 10.9014 9.29264C11.108 9.76335 11.3479 10.2175 11.5879 10.6717C11.7247 10.9307 11.8615 11.1897 11.9922 11.4518C13.1536 13.6799 14.3227 15.9042 15.4917 18.1285C15.96 19.0196 16.4283 19.9106 16.8962 20.8019C17.0118 20.9905 17.0095 21.2111 17.0072 21.4268C17.0067 21.471 17.0063 21.5151 17.0068 21.5586C17.0028 22.7249 17.0035 23.8913 17.0042 25.0576C17.005 26.2727 17.0057 27.4878 17.0011 28.7029C17.6629 28.71 18.3248 28.7086 18.9866 28.7072C19.1812 28.7068 19.3757 28.7064 19.5703 28.7062C19.5696 27.6606 19.5698 26.6149 19.57 25.5691C19.5703 24.1748 19.5705 22.7804 19.5687 21.3863C19.562 21.239 19.5922 21.0924 19.6564 20.9601C20.3576 19.6116 21.0636 18.2658 21.7697 16.9199C22.851 14.8587 23.9324 12.7975 24.9964 10.7268C25.0691 10.5736 25.1478 10.4231 25.2266 10.2726C25.3947 9.95135 25.5628 9.63013 25.6717 9.28265C25.0826 9.18396 24.4863 9.19134 23.8902 9.19872C23.5964 9.20235 23.3026 9.20599 23.0098 9.19692C22.4518 10.3103 21.9029 11.4286 21.354 12.547C20.5848 14.1141 19.8156 15.6813 19.0212 17.2352C18.9616 17.3513 18.9033 17.4681 18.845 17.585C18.6891 17.8973 18.5332 18.2099 18.3525 18.5079C18.1479 18.1616 17.9729 17.7992 17.7979 17.437C17.7205 17.2768 17.6432 17.1167 17.5633 16.958C16.812 15.4122 16.0717 13.8606 15.3315 12.3092C14.8775 11.3578 14.4236 10.4065 13.9672 9.45662C13.963 9.44819 13.9588 9.43953 13.9545 9.43079C13.9126 9.3446 13.8664 9.24953 13.7533 9.26767C13.5386 9.26086 13.3239 9.2522 13.1091 9.24353C12.5363 9.22042 11.9632 9.19729 11.3898 9.2094C11.2434 9.2138 11.1015 9.24654 10.9596 9.27929Z" fill="white"/>
<path d="M152.803 10.3622C153.506 10.1325 154.228 9.96267 154.955 9.83032C154.849 11.1896 154.75 12.5497 154.704 13.9131C155.845 13.9406 156.988 13.9406 158.129 13.9881C157.931 14.5091 157.722 15.0253 157.5 15.5363C156.538 15.5396 155.576 15.5321 154.615 15.5396C154.612 16.7973 154.626 18.0542 154.626 19.3119C154.614 20.3108 154.684 21.308 154.668 22.3077C154.695 23.4397 154.636 24.5776 154.763 25.7054C154.794 26.1749 155.21 26.5054 155.628 26.6252C156.325 26.7875 157.052 26.7301 157.742 26.5586C157.928 26.9671 158.013 27.4153 157.99 27.8646C157.364 28.1959 156.646 28.26 155.955 28.3224C154.98 28.3624 153.892 28.2051 153.191 27.4451C152.615 26.9007 152.66 26.0351 152.593 25.3034C152.523 23.6961 152.551 22.0854 152.542 20.4764C152.539 18.8308 152.547 17.1861 152.538 15.5404C151.929 15.5321 151.321 15.5379 150.714 15.5371C150.691 14.9994 150.694 14.4608 150.711 13.9231C151.308 13.9181 151.906 13.9315 152.503 13.914C152.594 12.7295 152.615 11.5367 152.803 10.3622V10.3622ZM67.9756 13.6251C68.4526 13.5635 68.9345 13.5868 69.4139 13.591C69.9818 13.6102 70.5645 13.5785 71.1119 13.7616C72.3683 14.2003 73.4738 15.086 74.1458 16.2546C74.7178 17.2626 75.1202 18.3938 75.1661 19.565C75.2374 21.1382 75.2891 22.7572 74.8039 24.2746C74.3523 25.698 73.364 26.9665 72.0421 27.6466C70.7276 28.3366 69.1541 28.4656 67.7322 28.0769C66.4538 27.7356 65.3441 26.8799 64.6106 25.772C63.7952 24.5842 63.5199 23.1134 63.4699 21.6909C63.4371 20.315 63.4109 18.8991 63.8616 17.5806C64.2869 16.2804 65.1089 15.0918 66.2612 14.3585C66.7906 14.0288 67.3626 13.7458 67.9756 13.6251V13.6251ZM78.9507 14.0621C79.5867 13.8546 80.2352 13.6886 80.8922 13.5652C81.1609 14.1899 81.3251 14.8558 81.3781 15.5354C81.8264 15.2991 82.1764 14.9203 82.5943 14.6365C83.5482 13.9431 84.707 13.5019 85.8913 13.5536C86.1584 13.5719 86.4174 13.6584 86.6567 13.7808C87.064 13.9881 87.4795 14.2011 87.8114 14.5266C88.1613 14.8621 88.381 15.3049 88.6219 15.7211C89.1562 15.4788 89.5701 15.0468 90.0495 14.7172C90.8814 14.1337 91.8295 13.6709 92.8474 13.5702C93.7792 13.462 94.7544 13.7791 95.4363 14.4384C95.7444 14.7389 96.0722 15.0443 96.2427 15.4522C96.4082 15.8501 96.459 16.2846 96.4976 16.7116C96.6598 18.9615 96.5484 21.2206 96.6352 23.473C96.6352 24.9705 96.6459 26.4671 96.6467 27.9645C95.9091 27.9753 95.1724 27.9803 94.4356 27.9595C94.4381 25.7146 94.4364 23.4705 94.4364 21.2256C94.4299 19.7822 94.4635 18.3364 94.3471 16.8964C94.317 16.6669 94.241 16.446 94.1239 16.2474C94.0068 16.0487 93.851 15.8764 93.6661 15.741C93.2358 15.453 92.6941 15.4847 92.2032 15.513C91.3321 15.5962 90.6035 16.1506 89.9463 16.6908C89.6349 16.958 89.3111 17.2102 89.0079 17.4865C88.9137 17.5623 88.9432 17.6996 88.9325 17.8062C88.9333 21.1915 88.9383 24.5776 88.9301 27.9637C88.1966 27.9762 87.4623 27.9795 86.7296 27.9604C86.7305 25.3267 86.7313 22.6939 86.7288 20.0603C86.7231 19.421 86.7419 18.7801 86.6903 18.1425C86.651 17.4924 86.7165 16.7948 86.4166 16.1972C85.9691 15.5538 85.0824 15.4189 84.371 15.597C83.2622 15.8676 82.3058 16.5618 81.4675 17.3226C81.3314 17.4108 81.3445 17.5823 81.3437 17.7246C81.3503 21.1357 81.3413 24.5476 81.3478 27.9587C80.7045 27.9787 80.0603 27.9803 79.4178 27.957C79.3572 24.4652 79.3998 20.97 79.3064 17.4774C79.2867 16.685 79.2875 15.89 79.1843 15.1026C79.122 14.7522 79.0089 14.4134 78.9507 14.0621V14.0621ZM116.467 13.9389C117.173 13.8341 117.877 13.71 118.577 13.5719C118.667 15.5379 118.635 17.509 118.653 19.4768C118.656 22.3052 118.653 25.1336 118.653 27.9612C117.922 27.9778 117.191 27.9778 116.46 27.962C116.437 23.9133 116.457 19.8638 116.451 15.8151C116.455 15.19 116.437 14.5641 116.467 13.9389V13.9389ZM138.141 15.1143C139.609 14.2927 141.217 13.581 142.925 13.5935C143.525 13.5977 144.132 13.571 144.729 13.6643C146.219 13.9506 147.493 15.3115 147.532 16.8814C147.611 19.2162 147.515 21.5535 147.539 23.8892C147.556 24.5834 147.531 25.2901 147.699 25.9685C147.799 26.4263 148.219 26.6793 148.542 26.9682C148.224 27.4085 147.965 27.9046 147.552 28.2625C147.312 28.4664 147.016 28.245 146.813 28.0952C146.279 27.6932 145.916 27.1088 145.621 26.5137C145.147 26.7759 144.784 27.1937 144.323 27.4759C143.519 27.9937 142.57 28.3016 141.615 28.2875C140.758 28.3075 139.879 28.1626 139.107 27.7739C137.853 27.1013 137.157 25.6347 137.193 24.2238C137.182 22.8679 137.859 21.5477 138.931 20.7478C140.214 19.7748 141.845 19.4543 143.41 19.3378C144.126 19.2737 144.845 19.2703 145.563 19.2387C145.592 18.527 145.539 17.8145 145.439 17.1103C145.354 16.5118 145.073 15.8992 144.532 15.5987C143.884 15.2516 143.118 15.2433 142.409 15.3473C141.072 15.513 139.816 16.0931 138.728 16.8847C138.438 16.4644 138.129 16.054 137.883 15.6062C137.762 15.3823 137.957 15.2058 138.141 15.1143V15.1143ZM165.168 13.6235C166.021 13.503 166.888 13.5275 167.733 13.6959C168.993 14.0026 170.101 14.7611 170.853 15.8318C171.457 16.6891 171.85 17.693 172.038 18.7276C172.183 19.7193 172.238 20.7223 172.203 21.7242C172.165 23.3523 171.672 24.9896 170.694 26.2914C169.903 27.3336 168.678 27.9587 167.42 28.1901C165.892 28.4615 164.235 28.1868 162.957 27.2645C161.836 26.4538 161.121 25.1852 160.734 23.8659C160.524 23.2008 160.487 22.4991 160.438 21.8083C160.416 20.6446 160.394 19.4668 160.626 18.3206C160.943 17.0212 161.574 15.7718 162.554 14.8587C163.276 14.1792 164.191 13.7472 165.168 13.6235V13.6235ZM175.95 14.1004C176.607 13.9123 177.261 13.7075 177.928 13.5544C178.28 14.2386 178.349 15.0177 178.386 15.7752C178.725 15.518 179.008 15.1967 179.308 14.8953C180.265 13.9331 181.646 13.3513 183 13.5977V13.77C182.703 14.4309 182.518 15.1359 182.24 15.8035C182.2 15.9267 182.034 15.8867 181.94 15.91C181.35 15.9242 180.723 15.9092 180.192 16.2113C179.67 16.522 179.21 16.9297 178.836 17.4133C178.473 17.8786 178.544 18.5062 178.517 19.0606C178.483 19.8655 178.465 20.6704 178.474 21.4753C178.471 23.6378 178.475 25.7995 178.471 27.9612C177.739 27.9778 177.005 27.9778 176.273 27.9612C176.261 25.5498 176.272 23.1376 176.268 20.7262C176.255 19.088 176.28 17.4474 176.196 15.811C176.18 15.2308 175.997 14.6756 175.95 14.1004V14.1004ZM122.951 14.1279C123.601 13.9198 124.259 13.6767 124.947 13.6634C125.194 14.3072 125.355 14.9815 125.427 15.6686C126.007 15.304 126.496 14.8088 127.092 14.4658C128.238 13.775 129.668 13.3022 130.974 13.7974C131.74 14.0721 132.485 14.5141 132.949 15.2108C133.329 15.7152 133.416 16.367 133.456 16.9821C133.571 19.1713 133.534 21.3646 133.561 23.5554C133.56 25.0237 133.589 26.4912 133.593 27.9587C132.86 27.9803 132.126 27.9778 131.392 27.9604C131.391 25.549 131.345 23.1376 131.34 20.7253C131.308 19.3835 131.377 18.0342 131.218 16.6991C131.019 16.059 130.41 15.5238 129.733 15.5063C129.233 15.4855 128.715 15.4664 128.238 15.6453C127.189 16.0424 126.244 16.6775 125.389 17.405C125.365 20.9234 125.387 24.4436 125.378 27.9629C124.735 27.9762 124.093 27.9795 123.451 27.9587C123.448 25.9635 123.399 23.9691 123.389 21.9739C123.371 19.9204 123.387 17.8661 123.281 15.8151C123.259 15.2366 123.072 14.6881 122.951 14.1279V14.1279Z" fill="white"/>
<path d="M70.9807 15.7178C70.18 15.2409 69.1925 15.1693 68.3008 15.3832C67.5641 15.5597 66.8683 15.9884 66.461 16.6476C65.8816 17.5882 65.798 18.7327 65.7325 19.8115C65.6579 20.6147 65.7267 21.4205 65.7964 22.2212C65.9119 23.1893 66.0939 24.1757 66.5553 25.0422C67.0593 25.9511 68.0927 26.4164 69.0843 26.4863C70.03 26.5488 71.0577 26.2899 71.7306 25.5765C72.2747 24.9706 72.5878 24.1773 72.6976 23.3707C72.8369 22.3577 72.814 21.3314 72.7968 20.3117C72.7501 19.2505 72.6779 18.1592 72.2559 17.172C71.9997 16.5581 71.5516 16.047 70.9807 15.7178Z" fill="#07051E"/>
<path d="M167.501 15.4898C166.806 15.2501 166.051 15.2684 165.332 15.3666C164.299 15.4815 163.467 16.3122 163.132 17.2802C162.718 18.2924 162.772 19.4045 162.748 20.4766C162.776 21.4896 162.774 22.5092 162.955 23.5097C163.081 24.1806 163.296 24.8615 163.745 25.3859C164.174 25.9087 164.797 26.2383 165.446 26.3823C166.365 26.5912 167.375 26.4863 168.197 26.0019C168.752 25.6781 169.128 25.1154 169.366 24.5236C169.647 23.8219 169.679 23.0544 169.737 22.3086C169.779 21.4221 169.788 20.5332 169.738 19.6467C169.664 18.7194 169.564 17.7563 169.116 16.9273C168.73 16.3055 168.161 15.7919 167.501 15.4898Z" fill="#07051E"/>
<path d="M107.897 15.6846C107.302 15.5505 106.682 15.5664 106.079 15.6171C104.98 15.7736 104.102 16.5427 103.382 17.3476C103.349 17.6123 103.369 17.8795 103.367 18.1459C103.368 20.2834 103.367 22.4202 103.367 24.5577C103.329 24.785 103.53 24.9165 103.667 25.0571C104.733 26.0951 106.326 26.5912 107.77 26.2166C108.469 26.0369 109.066 25.5482 109.428 24.9198C109.942 24.03 110.122 22.9928 110.233 21.9807C110.279 21.2024 110.374 20.4208 110.289 19.6417C110.248 18.7361 110.08 17.8088 109.62 17.0197C109.246 16.3729 108.63 15.8444 107.897 15.6846Z" fill="#07051E"/>
<path d="M143.827 20.7038C143.148 20.7687 142.461 20.8087 141.802 20.996C141.012 21.224 140.284 21.7285 139.864 22.4551C139.624 22.858 139.627 23.3458 139.601 23.8011C139.59 24.3055 139.525 24.8366 139.722 25.3152C139.918 25.7921 140.235 26.2599 140.721 26.4639C141.283 26.7028 141.908 26.7261 142.507 26.672C143.224 26.5837 143.866 26.1908 144.42 25.7405C144.884 25.3493 145.335 24.8391 145.367 24.1948C145.458 23.0544 145.438 21.9074 145.452 20.7637C144.908 20.7812 144.37 20.6555 143.827 20.7038Z" fill="#07051E"/>
</svg>