<svg xmlns="http://www.w3.org/2000/svg" width="52" height="52" viewBox="0 0 52 52" fill="none">
<path fill-rule="evenodd" clip-rule="evenodd" d="M0 25.7734C0 40.0077 11.5392 51.5469 25.7734 51.5469C40.0077 51.5469 51.5469 40.0077 51.5469 25.7734C51.5469 16.3587 46.4989 8.12299 38.9619 3.6253V3.62035H38.9536C35.0971 1.32097 30.5895 0 25.7734 0C11.5392 0 0 11.5392 0 25.7734ZM36.8931 4.77062C33.9818 3.22607 30.711 2.26911 27.2388 2.05785V24.4579V37.9784L36.8931 31.9978V4.77062ZM15.5158 4.33559C18.4505 2.92883 21.7189 2.10694 25.17 2.02091V23.3776L15.5158 29.2882V4.33559ZM13.447 5.45686C6.59203 9.62482 2.0134 17.1644 2.0134 25.7734C2.0134 29.4781 2.86125 32.9846 4.37348 36.1098L13.447 30.5547V5.45686ZM5.32226 37.8757L25.17 25.7244V39.26L13.8025 46.3019C10.3099 44.2609 7.38502 41.354 5.32226 37.8757ZM38.9619 30.7163L49.4822 24.1992C49.241 20.513 48.1592 17.0561 46.4267 14.0185L38.9619 18.384V30.7163ZM38.9619 16.0623L45.3606 12.3203C43.6483 9.83202 41.4741 7.68624 38.9619 6.0067V16.0623ZM15.8781 47.3812L49.5213 26.5401C49.1166 39.3076 38.6392 49.5335 25.7734 49.5335C22.2421 49.5335 18.8907 48.7631 15.8781 47.3812Z" fill="white" fill-opacity="0.5"/>
</svg>