<svg xmlns="http://www.w3.org/2000/svg" width="118" height="37" viewBox="0 0 118 37" fill="none">
<path fill-rule="evenodd" clip-rule="evenodd" d="M4.1741 7.84406V11.7157C4.1741 12.0249 4.30515 12.2433 4.56729 12.371C4.82943 12.4987 5.27643 12.6029 5.90826 12.6836C6.09647 12.7105 6.19055 12.8449 6.19055 13.0869C6.19055 13.1944 6.17712 13.3154 6.15024 13.4499C5.76039 13.423 5.27307 13.3994 4.68829 13.3793C4.10351 13.3591 3.46832 13.349 2.78271 13.349C2.29876 13.349 1.83163 13.3591 1.38129 13.3793C0.93094 13.3994 0.510824 13.423 0.120972 13.4499C0.0940847 13.3961 0.080658 13.3356 0.080658 13.2684V13.107C0.080658 12.8785 0.154585 12.7508 0.30246 12.7239C0.584767 12.6701 0.813307 12.6197 0.988068 12.5727C1.16283 12.5256 1.29726 12.4719 1.39136 12.4114C1.48546 12.3509 1.54931 12.2769 1.58292 12.1896C1.61652 12.1022 1.63333 11.9913 1.63333 11.8568V1.75433C1.63333 1.48546 1.53587 1.29054 1.34094 1.16955C1.14602 1.04856 0.772973 0.954461 0.221802 0.887245C0.154586 0.860359 0.100815 0.820031 0.0604858 0.766258C0.0201558 0.712485 0 0.618383 0 0.483952V0.302469C0 0.235253 0.0134277 0.181481 0.0403137 0.141151C0.416723 0.168038 0.850265 0.191564 1.34094 0.211729C1.83162 0.231894 2.27189 0.241976 2.66174 0.241976H5.7066C7.14503 0.241976 8.2675 0.564607 9.0741 1.20988C9.88069 1.85515 10.284 2.75583 10.284 3.91195C10.284 4.43623 10.1832 4.93699 9.98151 5.41422C9.77986 5.89145 9.48077 6.30819 9.0842 6.66443C8.68762 7.02068 8.20704 7.30634 7.64243 7.52143C7.07781 7.73652 6.43254 7.84406 5.7066 7.84406H4.1741ZM4.77902 6.83583C5.59906 6.83583 6.26114 6.62746 6.76526 6.21072C7.26938 5.79398 7.52142 5.08823 7.52142 4.09343C7.52142 3.19274 7.32315 2.4937 6.92657 1.9963C6.53 1.49891 5.81415 1.25021 4.77902 1.25021H4.1741V6.83583H4.77902ZM12.5357 6.7955C12.5357 5.85448 12.7138 4.97396 13.0701 4.15392C13.4263 3.33389 13.9136 2.61469 14.532 1.9963C15.1504 1.37792 15.873 0.890607 16.6997 0.534363C17.5265 0.178118 18.4104 0 19.3514 0C20.3193 0 21.22 0.168036 22.0534 0.504116C22.8869 0.840196 23.6095 1.3107 24.2212 1.91565C24.8328 2.52059 25.3134 3.23979 25.6629 4.07327C26.0125 4.90674 26.1872 5.81415 26.1872 6.7955C26.1872 7.73652 26.0091 8.6204 25.6528 9.44716C25.2966 10.2739 24.8093 10.9931 24.1909 11.6048C23.5725 12.2164 22.8466 12.7004 22.0131 13.0566C21.1796 13.4129 20.2924 13.591 19.3514 13.591C18.3835 13.591 17.4828 13.423 16.6493 13.0869C15.8158 12.7508 15.0966 12.2803 14.4917 11.6754C13.8868 11.0704 13.4095 10.3546 13.06 9.52781C12.7105 8.70106 12.5357 7.7903 12.5357 6.7955ZM19.6538 12.5424C20.2185 12.5424 20.7293 12.4181 21.1864 12.1694C21.6434 11.9207 22.0366 11.5813 22.366 11.1511C22.6954 10.7209 22.9508 10.2168 23.1323 9.63872C23.3137 9.06067 23.4045 8.44229 23.4045 7.78357C23.4045 6.8291 23.3137 5.94186 23.1323 5.12183C22.9508 4.3018 22.6752 3.59268 22.3055 2.99446C21.9358 2.39623 21.472 1.92573 20.9142 1.58293C20.3563 1.24013 19.7076 1.06873 18.9683 1.06873C18.4978 1.06873 18.0407 1.17291 17.597 1.38128C17.1534 1.58965 16.7636 1.89212 16.4275 2.28869C16.0914 2.68527 15.8226 3.16585 15.6209 3.73047C15.4193 4.29508 15.3185 4.93362 15.3185 5.64611C15.3185 6.64091 15.4159 7.56175 15.6108 8.40868C15.8058 9.2556 16.088 9.98488 16.4577 10.5965C16.8274 11.2082 17.2812 11.6854 17.8189 12.0282C18.3566 12.371 18.9682 12.5424 19.6538 12.5424ZM32.7542 11.635C32.7542 11.9173 32.9356 12.1055 33.2986 12.1996C33.6616 12.2937 34.2598 12.3408 35.0933 12.3408H35.8595C36.1956 12.3408 36.488 12.3038 36.7367 12.2299C36.9854 12.1559 37.2039 12.0316 37.3921 11.8568C37.5803 11.6821 37.7517 11.4569 37.9062 11.1813C38.0608 10.9057 38.2121 10.573 38.36 10.1832C38.4003 10.0756 38.5011 10.0219 38.6624 10.0219C38.7297 10.0219 38.8103 10.042 38.9044 10.0823L39.1867 10.2033C39.0792 10.6335 38.9817 11.1007 38.8943 11.6048C38.8069 12.1089 38.7297 12.6029 38.6624 13.0869C38.649 13.2482 38.6053 13.349 38.5314 13.3894C38.4574 13.4297 38.3801 13.4499 38.2995 13.4499C38.1919 13.4499 38.0407 13.4431 37.8458 13.4297C37.6508 13.4162 37.4391 13.4062 37.2106 13.3994C36.982 13.3927 36.7501 13.3826 36.5149 13.3692C36.2796 13.3557 36.0746 13.349 35.8999 13.349H31.3225C30.9326 13.349 30.4857 13.3591 29.9815 13.3793C29.4774 13.3994 29.0237 13.423 28.6204 13.4499C28.5935 13.3961 28.5801 13.3255 28.5801 13.2381V13.0466C28.5801 12.8449 28.6473 12.7374 28.7817 12.7239C29.2926 12.6298 29.6589 12.529 29.8807 12.4214C30.1025 12.3139 30.2134 12.1257 30.2134 11.8568V1.75433C30.2134 1.6199 30.2 1.50899 30.1731 1.42161C30.1462 1.33423 30.0924 1.25693 30.0118 1.18972C29.9311 1.1225 29.8068 1.06537 29.6387 1.01832C29.4707 0.971265 29.2455 0.927575 28.9632 0.887245C28.8288 0.846916 28.7616 0.73265 28.7616 0.544445V0.362963C28.7616 0.282304 28.775 0.208367 28.8019 0.141151C29.2321 0.168038 29.6891 0.191564 30.1731 0.211729C30.6571 0.231894 31.0872 0.241976 31.4637 0.241976C31.6519 0.241976 31.8669 0.238615 32.1089 0.231894C32.3509 0.225172 32.6029 0.218451 32.8651 0.211729C33.1272 0.205007 33.3894 0.194924 33.6515 0.18148C33.9137 0.168037 34.1522 0.154595 34.3673 0.141151C34.3808 0.208367 34.3909 0.282304 34.3976 0.362963C34.4043 0.443622 34.4077 0.504115 34.4077 0.544445C34.4077 0.73265 34.3405 0.846916 34.206 0.887245C33.628 0.967904 33.2415 1.07209 33.0466 1.1998C32.8516 1.32751 32.7542 1.52579 32.7542 1.79466V11.635ZM43.6364 7.8239L40.4302 1.714C40.2823 1.43169 40.0975 1.23677 39.8757 1.12922C39.6539 1.02168 39.3682 0.941018 39.0187 0.887245C38.8574 0.873802 38.7767 0.739372 38.7767 0.483952V0.393211C38.7767 0.359603 38.7834 0.322634 38.7969 0.282305L38.817 0.141151C39.1128 0.168038 39.4925 0.191564 39.9563 0.211729C40.4201 0.231894 40.9276 0.241976 41.4788 0.241976C41.667 0.241976 41.8922 0.238615 42.1543 0.231894C42.4164 0.225172 42.6819 0.218451 42.9508 0.211729C43.2197 0.205007 43.4717 0.194924 43.707 0.18148C43.9422 0.168037 44.1338 0.154595 44.2816 0.141151C44.3085 0.26214 44.322 0.34616 44.322 0.393211V0.504116C44.322 0.73265 44.2413 0.860359 44.08 0.887245C43.7305 0.927575 43.4885 0.984708 43.3541 1.05865C43.2197 1.13258 43.1524 1.23005 43.1524 1.35103C43.1524 1.45858 43.1995 1.59973 43.2936 1.77449L45.6529 6.4527L47.9718 2.09713C48.1197 1.84171 48.1936 1.62662 48.1936 1.45186C48.1936 1.29054 48.1197 1.17291 47.9718 1.09897C47.8239 1.02504 47.5685 0.954461 47.2055 0.887245C47.0308 0.860359 46.9434 0.73265 46.9434 0.504116C46.9434 0.450343 46.9636 0.329356 47.0039 0.141151C47.2862 0.168038 47.6391 0.191564 48.0625 0.211729C48.486 0.231894 48.859 0.241976 49.1817 0.241976C49.4909 0.241976 49.8169 0.235254 50.1597 0.221811C50.5025 0.208368 50.8486 0.181481 51.1982 0.141151C51.225 0.235254 51.2385 0.312552 51.2385 0.373047V0.504116C51.2385 0.746094 51.1578 0.873802 50.9965 0.887245C50.5125 0.954461 50.1765 1.04184 49.9883 1.14939C49.8001 1.25693 49.6387 1.42497 49.5043 1.6535L46.1772 7.78357V11.7963C46.1772 11.9442 46.1973 12.0652 46.2376 12.1593C46.278 12.2534 46.3519 12.3341 46.4594 12.4013C46.567 12.4685 46.7115 12.5256 46.893 12.5727C47.0745 12.6197 47.3131 12.6634 47.6088 12.7038C47.676 12.7172 47.7332 12.7474 47.7802 12.7945C47.8273 12.8415 47.8508 12.939 47.8508 13.0869C47.8508 13.1138 47.8475 13.144 47.8407 13.1776C47.834 13.2112 47.8307 13.2482 47.8307 13.2885L47.8105 13.4297C47.5954 13.4297 47.3937 13.4263 47.2055 13.4196C47.0173 13.4129 46.8291 13.4028 46.6409 13.3894C46.3183 13.3625 45.9856 13.3457 45.6428 13.3389C45.3 13.3322 45.0143 13.3289 44.7858 13.3289C44.5438 13.3289 44.2649 13.3322 43.9489 13.3389C43.633 13.3457 43.3272 13.3625 43.0315 13.3894C42.8567 13.4028 42.6853 13.4129 42.5172 13.4196C42.3492 13.4263 42.1778 13.4297 42.0031 13.4297L41.9829 13.2885C41.9694 13.2482 41.9627 13.2112 41.9627 13.1776V13.0869C41.9627 12.939 41.9862 12.8415 42.0333 12.7945C42.0803 12.7474 42.1375 12.7172 42.2047 12.7038C42.487 12.65 42.7223 12.5996 42.9105 12.5525C43.0987 12.5055 43.2465 12.4517 43.3541 12.3912C43.4616 12.3307 43.5356 12.2534 43.5759 12.1593C43.6162 12.0652 43.6364 11.9442 43.6364 11.7963V7.8239ZM58.4104 13.591C57.2812 13.591 56.2931 13.4162 55.4462 13.0667C54.5992 12.7172 53.9002 12.2366 53.3491 11.6249C52.7979 11.0133 52.3845 10.2941 52.1089 9.46732C51.8333 8.64056 51.6956 7.74997 51.6956 6.7955C51.6956 6.00235 51.83 5.20249 52.0988 4.3959C52.3677 3.58931 52.7911 2.86003 53.3692 2.20803C53.9473 1.55604 54.6866 1.02504 55.5873 0.615023C56.488 0.205005 57.5635 0 58.8137 0C59.4993 0 60.1412 0.0470491 60.7394 0.141151C61.3376 0.235254 61.9863 0.376407 62.6853 0.564611C62.7122 0.927578 62.766 1.39136 62.8466 1.95597C62.9273 2.52059 63.0415 3.07175 63.1894 3.60948C63.1222 3.62292 63.0348 3.63973 62.9273 3.65989C62.8197 3.68006 62.7391 3.69014 62.6853 3.69014C62.5778 3.69014 62.487 3.67333 62.4131 3.63973C62.3391 3.60612 62.2887 3.53554 62.2618 3.428C62.114 2.98437 61.9459 2.61133 61.7577 2.30886C61.5695 2.00639 61.3444 1.76441 61.0822 1.58293C60.8201 1.40144 60.5142 1.27038 60.1647 1.18972C59.8152 1.10906 59.4052 1.06873 58.9347 1.06873C58.2087 1.06873 57.5668 1.19308 57.0089 1.44177C56.451 1.69047 55.9839 2.04671 55.6075 2.5105C55.2311 2.97429 54.9454 3.53218 54.7505 4.18417C54.5556 4.83617 54.4581 5.57217 54.4581 6.39221C54.4581 7.26601 54.5757 8.07932 54.811 8.83213C55.0463 9.58495 55.3689 10.2369 55.7789 10.7881C56.1889 11.3393 56.6762 11.7695 57.2408 12.0786C57.8055 12.3878 58.4171 12.5424 59.0758 12.5424C59.6136 12.5424 60.074 12.492 60.4571 12.3912C60.8402 12.2904 61.1696 12.1358 61.4452 11.9274C61.7207 11.719 61.956 11.4535 62.1509 11.1309C62.3459 10.8083 62.524 10.4319 62.6853 10.0017C62.7256 9.89414 62.7895 9.81684 62.8769 9.76979C62.9642 9.72274 63.055 9.69922 63.1491 9.69922C63.2163 9.69922 63.3003 9.7093 63.4012 9.72946C63.502 9.74963 63.586 9.77315 63.6532 9.80004C63.5725 10.0286 63.4885 10.2874 63.4012 10.5764C63.3138 10.8654 63.223 11.1612 63.1289 11.4636C63.0348 11.7661 62.9508 12.0686 62.8769 12.371C62.8029 12.6735 62.7391 12.9659 62.6853 13.2482C62.0266 13.3692 61.3544 13.4566 60.6688 13.5103C59.9832 13.5641 59.2304 13.591 58.4104 13.591ZM77.8828 11.8568C77.8828 11.9913 77.8928 12.1022 77.913 12.1896C77.9332 12.2769 77.9869 12.3542 78.0743 12.4214C78.1617 12.4887 78.2894 12.5458 78.4575 12.5928C78.6255 12.6399 78.8507 12.6836 79.133 12.7239C79.2674 12.7508 79.3346 12.8651 79.3346 13.0667C79.3346 13.1071 79.3312 13.1675 79.3245 13.2482C79.3178 13.3289 79.3077 13.3961 79.2943 13.4499C78.8641 13.423 78.4071 13.3994 77.9231 13.3793C77.4391 13.3591 77.0089 13.349 76.6325 13.349C76.2427 13.349 75.8024 13.3591 75.3118 13.3793C74.8211 13.3994 74.3607 13.423 73.9305 13.4499C73.9036 13.3961 73.8901 13.3289 73.8901 13.2482V13.0667C73.8901 12.8516 73.9574 12.7374 74.0918 12.7239C74.3741 12.6836 74.5993 12.6399 74.7673 12.5928C74.9353 12.5458 75.0597 12.4887 75.1404 12.4214C75.221 12.3542 75.2748 12.2769 75.3017 12.1896C75.3286 12.1022 75.342 11.9913 75.342 11.8568V7.11814H69.8976V11.8568C69.8976 11.9913 69.9076 12.1022 69.9278 12.1896C69.948 12.2769 70.0017 12.3542 70.0891 12.4214C70.1765 12.4887 70.3042 12.5458 70.4722 12.5928C70.6403 12.6399 70.8655 12.6836 71.1478 12.7239C71.2822 12.7508 71.3494 12.8651 71.3494 13.0667C71.3494 13.1071 71.346 13.1675 71.3393 13.2482C71.3326 13.3289 71.3225 13.3961 71.3091 13.4499C70.8789 13.423 70.4151 13.3994 69.9177 13.3793C69.4203 13.3591 68.9834 13.349 68.607 13.349C68.2306 13.349 67.8004 13.3591 67.3165 13.3793C66.8325 13.3994 66.3754 13.423 65.9453 13.4499C65.9184 13.3961 65.9049 13.3289 65.9049 13.2482V13.0667C65.9049 12.8516 65.9721 12.7374 66.1066 12.7239C66.3889 12.6836 66.6141 12.6399 66.7821 12.5928C66.9501 12.5458 67.0745 12.4887 67.1552 12.4214C67.2358 12.3542 67.2896 12.2769 67.3165 12.1896C67.3434 12.1022 67.3568 11.9913 67.3568 11.8568V1.75433C67.3568 1.6199 67.3434 1.50899 67.3165 1.42161C67.2896 1.33423 67.2358 1.25693 67.1552 1.18972C67.0745 1.1225 66.9501 1.06537 66.7821 1.01832C66.6141 0.971265 66.3889 0.927575 66.1066 0.887245C65.9721 0.846916 65.9049 0.73265 65.9049 0.544445V0.362963C65.9049 0.282304 65.9184 0.208367 65.9453 0.141151C66.3754 0.168038 66.8325 0.191564 67.3165 0.211729C67.8004 0.231894 68.2306 0.241976 68.607 0.241976C68.9834 0.241976 69.4203 0.231894 69.9177 0.211729C70.4151 0.191564 70.8789 0.168038 71.3091 0.141151C71.3225 0.208367 71.3326 0.282304 71.3393 0.362963C71.346 0.443622 71.3494 0.504115 71.3494 0.544445C71.3494 0.73265 71.2822 0.846916 71.1478 0.887245C70.8655 0.927575 70.6403 0.971265 70.4722 1.01832C70.3042 1.06537 70.1765 1.1225 70.0891 1.18972C70.0017 1.25693 69.948 1.33423 69.9278 1.42161C69.9076 1.50899 69.8976 1.6199 69.8976 1.75433V6.04941H75.342V1.75433C75.342 1.6199 75.3286 1.50899 75.3017 1.42161C75.2748 1.33423 75.221 1.25693 75.1404 1.18972C75.0597 1.1225 74.9353 1.06537 74.7673 1.01832C74.5993 0.971265 74.3741 0.927575 74.0918 0.887245C73.9574 0.846916 73.8901 0.73265 73.8901 0.544445V0.362963C73.8901 0.282304 73.9036 0.208367 73.9305 0.141151C74.3607 0.168038 74.8211 0.191564 75.3118 0.211729C75.8024 0.231894 76.2427 0.241976 76.6325 0.241976C77.0089 0.241976 77.4391 0.231894 77.9231 0.211729C78.4071 0.191564 78.8641 0.168038 79.2943 0.141151C79.3077 0.208367 79.3178 0.282304 79.3245 0.362963C79.3312 0.443622 79.3346 0.504115 79.3346 0.544445C79.3346 0.73265 79.2674 0.846916 79.133 0.887245C78.8507 0.927575 78.6255 0.971265 78.4575 1.01832C78.2894 1.06537 78.1617 1.1225 78.0743 1.18972C77.9869 1.25693 77.9332 1.33423 77.913 1.42161C77.8928 1.50899 77.8828 1.6199 77.8828 1.75433V11.8568ZM89.3498 8.91279H85.1152L84.0666 11.7157C84.0263 11.7829 83.9994 11.8568 83.9859 11.9375C83.9725 12.0182 83.9658 12.0786 83.9658 12.119C83.9658 12.2669 84.0363 12.3878 84.1775 12.4819C84.3186 12.576 84.6043 12.6567 85.0345 12.7239C85.2227 12.7508 85.3168 12.8785 85.3168 13.107C85.3168 13.2012 85.3034 13.3154 85.2765 13.4499C84.9135 13.423 84.5304 13.3994 84.1271 13.3793C83.7238 13.3591 83.3272 13.349 82.9374 13.349C82.6685 13.349 82.3862 13.3557 82.0905 13.3692C81.7947 13.3826 81.4654 13.4095 81.1024 13.4499C81.0755 13.3961 81.0621 13.3356 81.0621 13.2684V13.107C81.0621 12.8516 81.1494 12.7172 81.3242 12.7038C81.7409 12.6231 82.04 12.5357 82.2215 12.4416C82.403 12.3475 82.5475 12.1862 82.6551 11.9577L87.5148 0.342798C87.6223 0.114264 87.7836 0 87.9987 0C88.0659 0 88.1331 0.00336064 88.2003 0.0100822C88.2676 0.0168038 88.3415 0.0268858 88.4222 0.040329L93.2819 12.0182C93.3625 12.2198 93.5171 12.371 93.7457 12.4719C93.9742 12.5727 94.2229 12.6433 94.4917 12.6836C94.6934 12.7239 94.7942 12.8584 94.7942 13.0869C94.7942 13.1944 94.7808 13.3154 94.7539 13.4499C94.3237 13.423 93.9003 13.3994 93.4835 13.3793C93.0668 13.3591 92.6769 13.349 92.314 13.349C92.1258 13.349 91.8972 13.3524 91.6284 13.3591C91.3595 13.3658 91.0839 13.3759 90.8016 13.3894C90.5193 13.4028 90.2404 13.4129 89.9648 13.4196C89.6892 13.4263 89.4573 13.4364 89.2691 13.4499C89.2422 13.3961 89.2288 13.3356 89.2288 13.2684V13.107C89.2288 12.9861 89.2523 12.8953 89.2993 12.8348C89.3464 12.7743 89.3968 12.7374 89.4506 12.7239C89.8001 12.6567 90.0589 12.5794 90.2269 12.492C90.3949 12.4046 90.479 12.2736 90.479 12.0988C90.479 12.0182 90.4588 11.9173 90.4185 11.7963L89.3498 8.91279ZM88.9666 7.90456L87.2526 3.3675L85.4983 7.90456H88.9666ZM100.514 11.8568C100.514 11.9913 100.524 12.1022 100.545 12.1896C100.565 12.2769 100.618 12.3542 100.706 12.4214C100.793 12.4887 100.921 12.5458 101.089 12.5928C101.257 12.6399 101.482 12.6836 101.764 12.7239C101.899 12.7508 101.966 12.8651 101.966 13.0667C101.966 13.1071 101.963 13.1675 101.956 13.2482C101.949 13.3289 101.939 13.3961 101.926 13.4499C101.496 13.423 101.035 13.3994 100.545 13.3793C100.054 13.3591 99.6203 13.349 99.2439 13.349C98.854 13.349 98.4172 13.3591 97.9332 13.3793C97.4492 13.3994 96.9922 13.423 96.562 13.4499C96.5351 13.3961 96.5217 13.3289 96.5217 13.2482V13.0667C96.5217 12.8516 96.5889 12.7374 96.7233 12.7239C97.0056 12.6836 97.2308 12.6399 97.3988 12.5928C97.5669 12.5458 97.6912 12.4887 97.7719 12.4214C97.8525 12.3542 97.9063 12.2769 97.9332 12.1896C97.9601 12.1022 97.9735 11.9913 97.9735 11.8568V1.75433C97.9735 1.6199 97.9601 1.50899 97.9332 1.42161C97.9063 1.33423 97.8525 1.25693 97.7719 1.18972C97.6912 1.1225 97.5669 1.06537 97.3988 1.01832C97.2308 0.971265 97.0056 0.927575 96.7233 0.887245C96.5889 0.846916 96.5217 0.73265 96.5217 0.544445V0.362963C96.5217 0.282304 96.5351 0.208367 96.562 0.141151C96.9922 0.168038 97.4492 0.191564 97.9332 0.211729C98.4172 0.231894 98.854 0.241976 99.2439 0.241976C99.6203 0.241976 100.054 0.231894 100.545 0.211729C101.035 0.191564 101.496 0.168038 101.926 0.141151C101.939 0.208367 101.949 0.282304 101.956 0.362963C101.963 0.443622 101.966 0.504115 101.966 0.544445C101.966 0.73265 101.899 0.846916 101.764 0.887245C101.482 0.927575 101.257 0.971265 101.089 1.01832C100.921 1.06537 100.793 1.1225 100.706 1.18972C100.618 1.25693 100.565 1.33423 100.545 1.42161C100.524 1.50899 100.514 1.6199 100.514 1.75433V11.8568ZM114.986 8.95312V1.79466C114.986 1.49891 114.885 1.29054 114.683 1.16955C114.482 1.04856 114.125 0.954461 113.615 0.887245C113.44 0.846916 113.352 0.719207 113.352 0.504116V0.342798C113.352 0.275582 113.366 0.208367 113.393 0.141151C113.729 0.181481 114.058 0.208368 114.381 0.221811C114.703 0.235254 115.08 0.241976 115.51 0.241976C115.94 0.241976 116.31 0.235254 116.619 0.221811C116.928 0.208368 117.238 0.181481 117.547 0.141151C117.56 0.208367 117.57 0.275582 117.577 0.342798C117.584 0.410014 117.587 0.463786 117.587 0.504116C117.587 0.73265 117.506 0.860359 117.345 0.887245C116.901 0.954461 116.599 1.04856 116.438 1.16955C116.276 1.29054 116.196 1.48546 116.196 1.75433V13.5507C116.142 13.5641 116.051 13.5742 115.923 13.5809C115.796 13.5876 115.712 13.591 115.671 13.591C115.577 13.591 115.476 13.5675 115.369 13.5204C115.261 13.4734 115.147 13.3759 115.026 13.228L107.081 3.14569V11.8568C107.081 11.9913 107.091 12.1022 107.111 12.1896C107.132 12.2769 107.185 12.3509 107.273 12.4114C107.36 12.4719 107.488 12.5256 107.656 12.5727C107.824 12.6197 108.049 12.6701 108.331 12.7239C108.399 12.7374 108.456 12.7676 108.503 12.8147C108.55 12.8617 108.573 12.9592 108.573 13.107C108.573 13.2012 108.56 13.3154 108.533 13.4499C108.197 13.423 107.881 13.3994 107.585 13.3793C107.29 13.3591 106.947 13.349 106.557 13.349C106.167 13.349 105.794 13.3591 105.438 13.3793C105.082 13.3994 104.756 13.423 104.46 13.4499C104.433 13.3961 104.419 13.3356 104.419 13.2684V13.107C104.419 12.9726 104.443 12.8785 104.49 12.8247C104.537 12.771 104.594 12.7374 104.661 12.7239C105.145 12.6433 105.468 12.5424 105.629 12.4214C105.791 12.3005 105.871 12.1123 105.871 11.8568V1.6535C105.871 1.43841 105.801 1.27374 105.66 1.15947C105.518 1.0452 105.199 0.954461 104.702 0.887245C104.54 0.846916 104.46 0.719207 104.46 0.504116V0.413376C104.46 0.379768 104.467 0.342799 104.48 0.302469L104.5 0.141151C104.688 0.154595 104.87 0.164677 105.045 0.171398C105.219 0.17812 105.394 0.188204 105.569 0.201647C105.865 0.21509 106.164 0.225172 106.466 0.231894C106.769 0.238615 107.014 0.241976 107.202 0.241976C107.592 0.241976 107.847 0.258779 107.968 0.292387C108.089 0.325995 108.197 0.389849 108.291 0.483952L114.986 8.95312ZM22.3559 36.2763C21.2267 36.2763 20.2386 36.1015 19.3917 35.752C18.5448 35.4025 17.8458 34.9219 17.2946 34.3102C16.7434 33.6986 16.33 32.9794 16.0544 32.1526C15.7789 31.3258 15.6411 30.4352 15.6411 29.4808C15.6411 28.6876 15.7755 27.8878 16.0444 27.0812C16.3132 26.2746 16.7367 25.5453 17.3148 24.8933C17.8928 24.2413 18.6322 23.7103 19.5329 23.3003C20.4336 22.8903 21.509 22.6853 22.7592 22.6853C23.4448 22.6853 24.0867 22.7323 24.6849 22.8264C25.2832 22.9205 25.9318 23.0617 26.6308 23.2499C26.6577 23.6129 26.7115 24.0766 26.7921 24.6413C26.8728 25.2059 26.9871 25.757 27.1349 26.2948C27.0677 26.3082 26.9803 26.325 26.8728 26.3452C26.7653 26.3653 26.6846 26.3754 26.6308 26.3754C26.5233 26.3754 26.4326 26.3586 26.3586 26.325C26.2847 26.2914 26.2343 26.2208 26.2074 26.1133C26.0595 25.6696 25.8915 25.2966 25.7032 24.9941C25.515 24.6917 25.2899 24.4497 25.0277 24.2682C24.7656 24.0867 24.4598 23.9557 24.1103 23.875C23.7607 23.7943 23.3507 23.754 22.8802 23.754C22.1543 23.754 21.5124 23.8784 20.9545 24.1271C20.3966 24.3758 19.9294 24.732 19.553 25.1958C19.1766 25.6596 18.8909 26.2175 18.696 26.8695C18.5011 27.5214 18.4036 28.2575 18.4036 29.0775C18.4036 29.9513 18.5213 30.7646 18.7565 31.5174C18.9918 32.2702 19.3144 32.9222 19.7244 33.4734C20.1344 34.0246 20.6218 34.4547 21.1864 34.7639C21.751 35.0731 22.3626 35.2277 23.0214 35.2277C23.5591 35.2277 24.0195 35.1773 24.4026 35.0765C24.7858 34.9757 25.1151 34.8211 25.3907 34.6127C25.6663 34.4043 25.9015 34.1388 26.0965 33.8162C26.2914 33.4935 26.4695 33.1171 26.6308 32.687C26.6712 32.5794 26.735 32.5021 26.8224 32.4551C26.9098 32.408 27.0005 32.3845 27.0946 32.3845C27.1619 32.3845 27.2459 32.3946 27.3467 32.4147C27.4475 32.4349 27.5315 32.4584 27.5988 32.4853C27.5181 32.7139 27.4341 32.9726 27.3467 33.2617C27.2593 33.5507 27.1686 33.8464 27.0745 34.1489C26.9804 34.4514 26.8963 34.7538 26.8224 35.0563C26.7484 35.3588 26.6846 35.6512 26.6308 35.9335C25.9721 36.0545 25.3 36.1419 24.6144 36.1956C23.9288 36.2494 23.176 36.2763 22.3559 36.2763ZM37.4122 31.5981H33.1776L32.1291 34.401C32.0887 34.4682 32.0618 34.5421 32.0484 34.6228C32.035 34.7034 32.0283 34.7639 32.0283 34.8043C32.0283 34.9521 32.0988 35.0731 32.24 35.1672C32.3811 35.2613 32.6668 35.342 33.097 35.4092C33.2852 35.4361 33.3793 35.5638 33.3793 35.7923C33.3793 35.8864 33.3658 36.0007 33.339 36.1351C32.976 36.1082 32.5929 36.0847 32.1896 36.0646C31.7863 36.0444 31.3897 36.0343 30.9998 36.0343C30.731 36.0343 30.4487 36.041 30.1529 36.0545C29.8572 36.0679 29.5278 36.0948 29.1649 36.1351C29.138 36.0814 29.1245 36.0209 29.1245 35.9536V35.7923C29.1245 35.5369 29.2119 35.4025 29.3867 35.389C29.8034 35.3084 30.1025 35.221 30.284 35.1269C30.4655 35.0328 30.61 34.8715 30.7176 34.6429L35.5772 23.0281C35.6848 22.7995 35.8461 22.6853 36.0612 22.6853C36.1284 22.6853 36.1956 22.6886 36.2628 22.6954C36.3301 22.7021 36.404 22.7122 36.4846 22.7256L41.3443 34.7034C41.425 34.9051 41.5796 35.0563 41.8081 35.1571C42.0367 35.258 42.2854 35.3285 42.5542 35.3689C42.7559 35.4092 42.8567 35.5436 42.8567 35.7722C42.8567 35.8797 42.8433 36.0007 42.8164 36.1351C42.3862 36.1082 41.9627 36.0847 41.546 36.0646C41.1292 36.0444 40.7394 36.0343 40.3764 36.0343C40.1882 36.0343 39.9597 36.0377 39.6908 36.0444C39.422 36.0511 39.1464 36.0612 38.8641 36.0746C38.5818 36.0881 38.3028 36.0982 38.0273 36.1049C37.7517 36.1116 37.5198 36.1217 37.3316 36.1351C37.3047 36.0814 37.2912 36.0209 37.2912 35.9536V35.7923C37.2912 35.6713 37.3148 35.5806 37.3618 35.5201C37.4089 35.4596 37.4593 35.4226 37.5131 35.4092C37.8626 35.342 38.1214 35.2647 38.2894 35.1773C38.4574 35.0899 38.5414 34.9589 38.5414 34.7841C38.5414 34.7034 38.5213 34.6026 38.481 34.4816L37.4122 31.5981ZM37.0291 30.5898L35.3151 26.0528L33.5608 30.5898H37.0291ZM48.7582 30.5293V34.401C48.7582 34.7102 48.8893 34.9286 49.1514 35.0563C49.4136 35.184 49.8606 35.2882 50.4924 35.3689C50.6806 35.3958 50.7747 35.5302 50.7747 35.7722C50.7747 35.8797 50.7613 36.0007 50.7344 36.1351C50.3445 36.1082 49.8572 36.0847 49.2724 36.0646C48.6877 36.0444 48.0525 36.0343 47.3669 36.0343C46.8829 36.0343 46.4158 36.0444 45.9654 36.0646C45.5151 36.0847 45.095 36.1082 44.7051 36.1351C44.6782 36.0814 44.6648 36.0209 44.6648 35.9536V35.7923C44.6648 35.5638 44.7387 35.4361 44.8866 35.4092C45.1689 35.3554 45.3974 35.305 45.5722 35.258C45.747 35.2109 45.8814 35.1571 45.9755 35.0966C46.0696 35.0362 46.1334 34.9622 46.1671 34.8748C46.2007 34.7875 46.2175 34.6765 46.2175 34.5421V24.4396C46.2175 24.1707 46.12 23.9758 45.9251 23.8548C45.7302 23.7338 45.3571 23.6397 44.8059 23.5725C44.7387 23.5456 44.685 23.5053 44.6446 23.4515C44.6043 23.3978 44.5841 23.3037 44.5841 23.1692V22.9877C44.5841 22.9205 44.5976 22.8668 44.6245 22.8264C45.0009 22.8533 45.4344 22.8768 45.9251 22.897C46.4158 22.9172 46.856 22.9273 47.2459 22.9273H50.2907C51.7292 22.9273 52.8516 23.2499 53.6582 23.8952C54.4648 24.5404 54.8681 25.4411 54.8681 26.5972C54.8681 27.1215 54.7673 27.6223 54.5656 28.0995C54.364 28.5767 54.0649 28.9935 53.6683 29.3497C53.2718 29.706 52.7912 29.9916 52.2266 30.2067C51.6619 30.4218 51.0167 30.5293 50.2907 30.5293H48.7582ZM49.3632 29.5211C50.1832 29.5211 50.8453 29.3127 51.3494 28.896C51.8535 28.4793 52.1056 27.7735 52.1056 26.7787C52.1056 25.878 51.9073 25.179 51.5107 24.6816C51.1141 24.1842 50.3983 23.9355 49.3632 23.9355H48.7582V29.5211H49.3632ZM61.2536 34.5421C61.2536 34.6765 61.2637 34.7875 61.2838 34.8748C61.304 34.9622 61.3578 35.0395 61.4452 35.1067C61.5325 35.1739 61.6603 35.2311 61.8283 35.2781C61.9963 35.3252 62.2215 35.3689 62.5038 35.4092C62.6382 35.4361 62.7055 35.5504 62.7055 35.752C62.7055 35.7923 62.7021 35.8528 62.6954 35.9335C62.6887 36.0141 62.6786 36.0814 62.6651 36.1351C62.2349 36.1082 61.7745 36.0847 61.2838 36.0646C60.7932 36.0444 60.3597 36.0343 59.9832 36.0343C59.5934 36.0343 59.1565 36.0444 58.6725 36.0646C58.1886 36.0847 57.7315 36.1082 57.3013 36.1351C57.2744 36.0814 57.261 36.0141 57.261 35.9335V35.752C57.261 35.5369 57.3282 35.4226 57.4626 35.4092C57.745 35.3689 57.9701 35.3252 58.1382 35.2781C58.3062 35.2311 58.4305 35.1739 58.5112 35.1067C58.5919 35.0395 58.6456 34.9622 58.6725 34.8748C58.6994 34.7875 58.7129 34.6765 58.7129 34.5421V24.4396C58.7129 24.3052 58.6994 24.1943 58.6725 24.1069C58.6456 24.0195 58.5919 23.9422 58.5112 23.875C58.4305 23.8078 58.3062 23.7506 58.1382 23.7036C57.9701 23.6565 57.745 23.6129 57.4626 23.5725C57.3282 23.5322 57.261 23.4179 57.261 23.2297V23.0482C57.261 22.9676 57.2744 22.8936 57.3013 22.8264C57.7315 22.8533 58.1886 22.8768 58.6725 22.897C59.1565 22.9172 59.5934 22.9273 59.9832 22.9273C60.3597 22.9273 60.7932 22.9172 61.2838 22.897C61.7745 22.8768 62.2349 22.8533 62.6651 22.8264C62.6786 22.8936 62.6887 22.9676 62.6954 23.0482C62.7021 23.1289 62.7055 23.1894 62.7055 23.2297C62.7055 23.4179 62.6382 23.5322 62.5038 23.5725C62.2215 23.6129 61.9963 23.6565 61.8283 23.7036C61.6603 23.7506 61.5325 23.8078 61.4452 23.875C61.3578 23.9422 61.304 24.0195 61.2838 24.1069C61.2637 24.1943 61.2536 24.3052 61.2536 24.4396V34.5421ZM72.3375 23.9355V34.5421C72.3375 34.6765 72.3475 34.7875 72.3677 34.8748C72.3879 34.9622 72.4383 35.0395 72.519 35.1067C72.5996 35.1739 72.7139 35.2311 72.8618 35.2781C73.0096 35.3252 73.218 35.3689 73.4868 35.4092C73.6885 35.4495 73.7893 35.5638 73.7893 35.752C73.7893 35.7923 73.786 35.8528 73.7792 35.9335C73.7725 36.0141 73.7624 36.0814 73.749 36.1351C73.3188 36.1082 72.8584 36.0847 72.3677 36.0646C71.877 36.0444 71.4435 36.0343 71.0671 36.0343C70.6773 36.0343 70.2437 36.0444 69.7665 36.0646C69.2892 36.0847 68.8355 36.1082 68.4054 36.1351C68.3785 36.0814 68.3617 36.0141 68.3549 35.9335C68.3482 35.8528 68.3448 35.7923 68.3448 35.752C68.3448 35.6579 68.3617 35.5806 68.3953 35.5201C68.4289 35.4596 68.5196 35.4159 68.6675 35.389C69.1649 35.3218 69.4775 35.2311 69.6052 35.1168C69.7329 35.0025 69.7967 34.811 69.7967 34.5421V23.9355H68.0222C67.6458 23.9355 67.3265 23.9725 67.0644 24.0464C66.8023 24.1203 66.5737 24.2346 66.3788 24.3892C66.1839 24.5438 66.0091 24.7454 65.8545 24.9941C65.6999 25.2428 65.542 25.5419 65.3806 25.8915C65.3269 26.0125 65.2261 26.0729 65.0782 26.0729C64.9975 26.0729 64.9034 26.0561 64.7959 26.0225C64.6883 25.9889 64.6077 25.9587 64.5539 25.9318C64.648 25.6092 64.7287 25.3235 64.7959 25.0748C64.8631 24.8261 64.9169 24.5808 64.9572 24.3388C65.011 24.0296 65.0513 23.754 65.0782 23.512C65.1051 23.2701 65.1387 23.0953 65.179 22.9877C65.2328 22.8668 65.3403 22.8063 65.5016 22.8063C65.6495 22.8063 65.9419 22.8264 66.3788 22.8668C66.8157 22.9071 67.3433 22.9273 67.9617 22.9273H74.1725C74.7774 22.9273 75.2983 22.9071 75.7352 22.8668C76.1721 22.8264 76.4712 22.8063 76.6325 22.8063C76.7804 22.8063 76.888 22.8668 76.9552 22.9877C76.9955 23.0953 77.0258 23.2701 77.0459 23.512C77.0661 23.754 77.1098 24.0296 77.177 24.3388C77.2173 24.5808 77.2677 24.8261 77.3282 25.0748C77.3887 25.3235 77.4727 25.6092 77.5803 25.9318C77.5131 25.9587 77.429 25.9889 77.3282 26.0225C77.2274 26.0561 77.1367 26.0729 77.056 26.0729C76.9081 26.0729 76.8006 26.0125 76.7334 25.8915C76.5721 25.5419 76.4141 25.2428 76.2595 24.9941C76.1049 24.7454 75.9302 24.5438 75.7352 24.3892C75.5403 24.2346 75.3118 24.1203 75.0496 24.0464C74.7875 23.9725 74.4749 23.9355 74.112 23.9355H72.3375ZM84.7724 31.5981H80.5378L79.4892 34.401C79.4489 34.4682 79.422 34.5421 79.4086 34.6228C79.3951 34.7034 79.3884 34.7639 79.3884 34.8043C79.3884 34.9521 79.459 35.0731 79.6001 35.1672C79.7413 35.2613 80.0269 35.342 80.4571 35.4092C80.6453 35.4361 80.7394 35.5638 80.7394 35.7923C80.7394 35.8864 80.726 36.0007 80.6991 36.1351C80.3361 36.1082 79.953 36.0847 79.5497 36.0646C79.1464 36.0444 78.7498 36.0343 78.36 36.0343C78.0911 36.0343 77.8088 36.041 77.5131 36.0545C77.2173 36.0679 76.888 36.0948 76.525 36.1351C76.4981 36.0814 76.4847 36.0209 76.4847 35.9536V35.7923C76.4847 35.5369 76.5721 35.4025 76.7468 35.389C77.1636 35.3084 77.4627 35.221 77.6441 35.1269C77.8256 35.0328 77.9702 34.8715 78.0777 34.6429L82.9374 23.0281C83.0449 22.7995 83.2062 22.6853 83.4213 22.6853C83.4885 22.6853 83.5558 22.6886 83.623 22.6954C83.6902 22.7021 83.7641 22.7122 83.8448 22.7256L88.7045 34.7034C88.7851 34.9051 88.9397 35.0563 89.1683 35.1571C89.3968 35.258 89.6455 35.3285 89.9144 35.3689C90.116 35.4092 90.2168 35.5436 90.2168 35.7722C90.2168 35.8797 90.2034 36.0007 90.1765 36.1351C89.7463 36.1082 89.3229 36.0847 88.9061 36.0646C88.4894 36.0444 88.0995 36.0343 87.7366 36.0343C87.5484 36.0343 87.3198 36.0377 87.051 36.0444C86.7821 36.0511 86.5065 36.0612 86.2242 36.0746C85.9419 36.0881 85.663 36.0982 85.3874 36.1049C85.1118 36.1116 84.8799 36.1217 84.6917 36.1351C84.6648 36.0814 84.6514 36.0209 84.6514 35.9536V35.7923C84.6514 35.6713 84.6749 35.5806 84.722 35.5201C84.769 35.4596 84.8194 35.4226 84.8732 35.4092C85.2227 35.342 85.4815 35.2647 85.6495 35.1773C85.8176 35.0899 85.9016 34.9589 85.9016 34.7841C85.9016 34.7034 85.8814 34.6026 85.8411 34.4816L84.7724 31.5981ZM84.3892 30.5898L82.6752 26.0528L80.9209 30.5898H84.3892ZM96.1184 34.3203C96.1184 34.6026 96.2998 34.7908 96.6628 34.8849C97.0258 34.979 97.624 35.0261 98.4575 35.0261H99.2237C99.5598 35.0261 99.8522 34.9891 100.101 34.9152C100.35 34.8412 100.568 34.7169 100.756 34.5421C100.944 34.3674 101.116 34.1422 101.27 33.8666C101.425 33.591 101.576 33.2583 101.724 32.8684C101.764 32.7609 101.865 32.7071 102.027 32.7071C102.094 32.7071 102.174 32.7273 102.269 32.7676L102.551 32.8886C102.443 33.3188 102.346 33.7859 102.259 34.2901C102.171 34.7942 102.094 35.2882 102.027 35.7722C102.013 35.9335 101.969 36.0343 101.896 36.0746C101.822 36.115 101.744 36.1351 101.664 36.1351C101.556 36.1351 101.405 36.1284 101.21 36.115C101.015 36.1015 100.803 36.0914 100.575 36.0847C100.346 36.078 100.114 36.0679 99.8791 36.0545C99.6438 36.041 99.4388 36.0343 99.2641 36.0343H94.6867C94.2968 36.0343 93.8498 36.0444 93.3457 36.0646C92.8416 36.0847 92.3879 36.1082 91.9846 36.1351C91.9577 36.0814 91.9443 36.0108 91.9443 35.9234V35.7318C91.9443 35.5302 92.0115 35.4226 92.1459 35.4092C92.6567 35.3151 93.0231 35.2143 93.2449 35.1067C93.4667 34.9992 93.5776 34.811 93.5776 34.5421V24.4396C93.5776 24.3052 93.5642 24.1943 93.5373 24.1069C93.5104 24.0195 93.4566 23.9422 93.376 23.875C93.2953 23.8078 93.171 23.7506 93.0029 23.7036C92.8349 23.6565 92.6097 23.6129 92.3274 23.5725C92.193 23.5322 92.1258 23.4179 92.1258 23.2297V23.0482C92.1258 22.9676 92.1392 22.8936 92.1661 22.8264C92.5963 22.8533 93.0533 22.8768 93.5373 22.897C94.0212 22.9172 94.4514 22.9273 94.8278 22.9273C95.016 22.9273 95.2311 22.9239 95.4731 22.9172C95.7151 22.9105 95.9671 22.9037 96.2293 22.897C96.4914 22.8903 96.7535 22.8802 97.0157 22.8668C97.2778 22.8533 97.5164 22.8399 97.7315 22.8264C97.745 22.8936 97.7551 22.9676 97.7618 23.0482C97.7685 23.1289 97.7719 23.1894 97.7719 23.2297C97.7719 23.4179 97.7047 23.5322 97.5702 23.5725C96.9922 23.6532 96.6057 23.7574 96.4108 23.8851C96.2158 24.0128 96.1184 24.2111 96.1184 24.4799V34.3203Z" fill="white"/>
</svg>